<?xml version="1.0" encoding="utf-8"?>
<!-- Generator: flash2svg, http://dissentgraphics.com/tools/flash2svg -->
<svg xmlns:xlink="http://www.w3.org/1999/xlink" id="Spots-NewLogo2" image-rendering="auto" baseProfile="basic" version="1.1" x="0px" y="0px" width="800" height="600" xmlns="http://www.w3.org/2000/svg" viewBox="0 0 800 600">
  <defs>
    <symbol id="green" viewBox="-350.8 -136.2 472.7 416.8">
      <g id="green_0">
        <g id="element91" overflow="visible">
          <g id=".__26.__23060Path.__26.__23062_0">
            <g id="element93">
              <path id="path4" fill="#94F829" d="M72.101,83.001 C53.501,11.201 6.551,-49.299 -56.349,-85.949 L-56.374,-85.949 L-249.549,60.751 C-252.599,62.601 -255.599,64.651 -258.549,66.901 -291.999,92.351 -306.199,133.701 -298.599,172.151 -298.649,171.901 -298.699,171.601 -298.749,171.301 -301.249,157.701 -301.099,144.101 -298.249,130.501 -295.449,116.901 -290.199,104.351 -282.549,92.851 -274.599,81.001 -264.599,71.101 -252.549,63.151 -203.449,30.851 -137.499,44.451 -105.199,93.551 -75.949,138.001 -84.399,196.301 -122.649,230.851 L72.101,82.976" fill-opacity="0.6"/>
            </g>
          </g>
        </g>
      </g>
    </symbol>
    <symbol id="purple" viewBox="-191.8 -92.85 346.15 468.04999999999995">
      <g id="purple_1_0">
        <g id="element92" overflow="visible">
          <g id=".__26.__23060Path.__26.__23062_1_0_0">
            <g id="element94">
              <path id="path5" fill="#9C69F7" d="M-34.599,-42.599 C-59.199,-42.599 -83.049,-39.349 -105.749,-33.349 L-138.599,206.751 C-139.449,210.251 -140.099,213.851 -140.599,217.451 -146.799,262.651 -123.699,305.051 -85.899,325.451 -100.349,317.601 -113.499,305.851 -123.449,290.701 -155.749,241.651 -142.149,175.651 -93.049,143.401 -43.949,111.101 22.001,124.701 54.301,173.801 66.601,192.501 72.251,213.601 71.801,234.251 L104.526,-4.874 L104.551,-4.849 C64.051,-28.749 16.351,-42.599 -34.599,-42.599z" fill-opacity="0.6"/>
            </g>
          </g>
        </g>
      </g>
    </symbol>
    <filter id="filter" filterUnits="objectBoundingBox" width="100%" height="100%" x="0%" y="0%">
      <feColorMatrix id="feColorMatrix" type="matrix" in="SourceGraphic" values="1 0 0 0 0 0 1 0 0 0 0 0 1 0 0 0 0 0 0.6 0" result="colorEffect_percent"/>
    </filter>
    <filter id="filter1" filterUnits="objectBoundingBox" width="100%" height="100%" x="0%" y="0%">
      <feColorMatrix id="feColorMatrix1" type="matrix" in="SourceGraphic" values="1 0 0 0 0 0 1 0 0 0 0 0 1 0 0 0 0 0 0.6 0" result="colorEffect_percent"/>
    </filter>
  </defs>
  <g id="Scene_2" overflow="visible">
    <g id="Scene_1_3_0">
      <g id="element90">
        <path id="path" fill="#00D4DC" d="M674.95,300.1 C674.95,148.3 551.9,25.2 400.05,25.2 248.25,25.2 125.15,148.3 125.15,300.1 125.15,451.9 248.25,574.95 400.05,574.95 Q456,574.95 507.05,553.35 556.4,532.5 594.45,494.45 632.5,456.4 653.35,407.1 674.95,356 674.95,300.1z M488.95,241.6 C521.25,290.65 507.6,356.6 458.55,388.9 409.45,421.2 343.5,407.6 311.2,358.5 278.9,309.45 292.5,243.45 341.6,211.2 390.7,178.9 456.65,192.5 488.95,241.6z"/>
      </g>
    </g>
    <g id="Scene_1_2_44">
      <use xlink:href="#purple" id="element89" width="347" height="469" x="-192" y="-93" overflow="visible" viewBox="-191.8 -92.85 346.15 468.04999999999995" transform="matrix(1 0 0 1 435.4 68.35)"/>
      <animate attributeName="display" begin="0s" repeatCount="indefinite" dur="1.833s" keyTimes="0;1;1" values="none;inline;none"/>
    </g>
    <g id="Scene_1_2_43">
      <use xlink:href="#purple" id="element88" width="347" height="469" x="-192" y="-93" overflow="visible" viewBox="-191.8 -92.85 346.15 468.04999999999995" transform="matrix(0.9999237060546875 0.0090179443359375 -0.0090179443359375 0.9999237060546875 437.5 68.7)"/>
      <animate attributeName="display" begin="0s" repeatCount="indefinite" dur="1.833s" keyTimes="0;0.977;1" values="none;inline;none"/>
    </g>
    <g id="Scene_1_2_42">
      <use xlink:href="#purple" id="element87" width="347" height="469" x="-192" y="-93" overflow="visible" viewBox="-191.8 -92.85 346.15 468.04999999999995" transform="matrix(0.99908447265625 0.039337158203125 -0.039337158203125 0.99908447265625 444.45 69.95)"/>
      <animate attributeName="display" begin="0s" repeatCount="indefinite" dur="1.833s" keyTimes="0;0.955;0.977;1" values="none;inline;none;none"/>
    </g>
    <g id="Scene_1_2_41">
      <use xlink:href="#purple" id="element86" width="347" height="469" x="-192" y="-93" overflow="visible" viewBox="-191.8 -92.85 346.15 468.04999999999995" transform="matrix(0.995849609375 0.0877532958984375 -0.0877532958984375 0.995849609375 455.55 72.4)"/>
      <animate attributeName="display" begin="0s" repeatCount="indefinite" dur="1.833s" keyTimes="0;0.932;0.955;1" values="none;inline;none;none"/>
    </g>
    <g id="Scene_1_2_40">
      <use xlink:href="#purple" id="element85" width="347" height="469" x="-192" y="-93" overflow="visible" viewBox="-191.8 -92.85 346.15 468.04999999999995" transform="matrix(0.987060546875 0.15716552734375 -0.15716552734375 0.987060546875 471.3 76.9)"/>
      <animate attributeName="display" begin="0s" repeatCount="indefinite" dur="1.833s" keyTimes="0;0.909;0.932;1" values="none;inline;none;none"/>
    </g>
    <g id="Scene_1_2_39">
      <use xlink:href="#purple" id="element84" width="347" height="469" x="-192" y="-93" overflow="visible" viewBox="-191.8 -92.85 346.15 468.04999999999995" transform="matrix(0.9682769775390625 0.2467041015625 -0.2467041015625 0.9682769775390625 491.4 84.4)"/>
      <animate attributeName="display" begin="0s" repeatCount="indefinite" dur="1.833s" keyTimes="0;0.887;0.909;1" values="none;inline;none;none"/>
    </g>
    <g id="Scene_1_2_38">
      <use xlink:href="#purple" id="element83" width="347" height="469" x="-192" y="-93" overflow="visible" viewBox="-191.8 -92.85 346.15 468.04999999999995" transform="matrix(0.9351348876953125 0.3512115478515625 -0.3512115478515625 0.9351348876953125 514.4 95.75)"/>
      <animate attributeName="display" begin="0s" repeatCount="indefinite" dur="1.833s" keyTimes="0;0.864;0.887;1" values="none;inline;none;none"/>
    </g>
    <g id="Scene_1_2_37">
      <use xlink:href="#purple" id="element82" width="347" height="469" x="-192" y="-93" overflow="visible" viewBox="-191.8 -92.85 346.15 468.04999999999995" transform="matrix(0.8793182373046875 0.4733428955078125 -0.4733428955078125 0.8793182373046875 540.7 113)"/>
      <animate attributeName="display" begin="0s" repeatCount="indefinite" dur="1.833s" keyTimes="0;0.841;0.864;1" values="none;inline;none;none"/>
    </g>
    <g id="Scene_1_2_36">
      <use xlink:href="#purple" id="element81" width="347" height="469" x="-192" y="-93" overflow="visible" viewBox="-191.8 -92.85 346.15 468.04999999999995" transform="matrix(0.7989959716796875 0.598724365234375 -0.598724365234375 0.7989959716796875 566.9 136)"/>
      <animate attributeName="display" begin="0s" repeatCount="indefinite" dur="1.833s" keyTimes="0;0.818;0.841;1" values="none;inline;none;none"/>
    </g>
    <g id="Scene_1_2_35">
      <use xlink:href="#purple" id="element80" width="347" height="469" x="-192" y="-93" overflow="visible" viewBox="-191.8 -92.85 346.15 468.04999999999995" transform="matrix(0.685943603515625 0.72540283203125 -0.72540283203125 0.685943603515625 592.2 166.65)"/>
      <animate attributeName="display" begin="0s" repeatCount="indefinite" dur="1.833s" keyTimes="0;0.796;0.818;1" values="none;inline;none;none"/>
    </g>
    <g id="Scene_1_2_34">
      <use xlink:href="#purple" id="element79" width="347" height="469" x="-192" y="-93" overflow="visible" viewBox="-191.8 -92.85 346.15 468.04999999999995" transform="matrix(0.54144287109375 0.838958740234375 -0.838958740234375 0.54144287109375 613.35 204.15)"/>
      <animate attributeName="display" begin="0s" repeatCount="indefinite" dur="1.833s" keyTimes="0;0.773;0.796;1" values="none;inline;none;none"/>
    </g>
    <g id="Scene_1_2_33">
      <use xlink:href="#purple" id="element78" width="347" height="469" x="-192" y="-93" overflow="visible" viewBox="-191.8 -92.85 346.15 468.04999999999995" transform="matrix(0.3629608154296875 0.93060302734375 -0.93060302734375 0.3629608154296875 628.35 248.65)"/>
      <animate attributeName="display" begin="0s" repeatCount="indefinite" dur="1.833s" keyTimes="0;0.75;0.773;1" values="none;inline;none;none"/>
    </g>
    <g id="Scene_1_2_32">
      <use xlink:href="#purple" id="element77" width="347" height="469" x="-192" y="-93" overflow="visible" viewBox="-191.8 -92.85 346.15 468.04999999999995" transform="matrix(0.1568756103515625 0.987091064453125 -0.987091064453125 0.1568756103515625 634.15 298.3)"/>
      <animate attributeName="display" begin="0s" repeatCount="indefinite" dur="1.833s" keyTimes="0;0.727;0.75;1" values="none;inline;none;none"/>
    </g>
    <g id="Scene_1_2_31">
      <use xlink:href="#purple" id="element76" width="347" height="469" x="-192" y="-93" overflow="visible" viewBox="-191.8 -92.85 346.15 468.04999999999995" transform="matrix(-0.0657958984375 0.9976043701171875 -0.9976043701171875 -0.0657958984375 628.65 350.25)"/>
      <animate attributeName="display" begin="0s" repeatCount="indefinite" dur="1.833s" keyTimes="0;0.705;0.727;1" values="none;inline;none;none"/>
    </g>
    <g id="Scene_1_2_30">
      <use xlink:href="#purple" id="element75" width="347" height="469" x="-192" y="-93" overflow="visible" viewBox="-191.8 -92.85 346.15 468.04999999999995" transform="matrix(-0.2968292236328125 0.953948974609375 -0.953948974609375 -0.2968292236328125 610.4 402.2)"/>
      <animate attributeName="display" begin="0s" repeatCount="indefinite" dur="1.833s" keyTimes="0;0.682;0.705;1" values="none;inline;none;none"/>
    </g>
    <g id="Scene_1_2_29">
      <use xlink:href="#purple" id="element74" width="347" height="469" x="-192" y="-93" overflow="visible" viewBox="-191.8 -92.85 346.15 468.04999999999995" transform="matrix(-0.51580810546875 0.855010986328125 -0.855010986328125 -0.51580810546875 579.75 449.35)"/>
      <animate attributeName="display" begin="0s" repeatCount="indefinite" dur="1.833s" keyTimes="0;0.659;0.682;1" values="none;inline;none;none"/>
    </g>
    <g id="Scene_1_2_28">
      <use xlink:href="#purple" id="element73" width="347" height="469" x="-192" y="-93" overflow="visible" viewBox="-191.8 -92.85 346.15 468.04999999999995" transform="matrix(-0.7105712890625 0.7013092041015625 -0.7013092041015625 -0.7105712890625 537.3 489.05)"/>
      <animate attributeName="display" begin="0s" repeatCount="indefinite" dur="1.833s" keyTimes="0;0.636;0.659;1" values="none;inline;none;none"/>
    </g>
    <g id="Scene_1_2_27">
      <use xlink:href="#purple" id="element72" width="347" height="469" x="-192" y="-93" overflow="visible" viewBox="-191.8 -92.85 346.15 468.04999999999995" transform="matrix(-0.8620452880859375 0.503997802734375 -0.503997802734375 -0.8620452880859375 486.3 517.15)"/>
      <animate attributeName="display" begin="0s" repeatCount="indefinite" dur="1.833s" keyTimes="0;0.614;0.636;1" values="none;inline;none;none"/>
    </g>
    <g id="Scene_1_2_26">
      <use xlink:href="#purple" id="element71" width="347" height="469" x="-192" y="-93" overflow="visible" viewBox="-191.8 -92.85 346.15 468.04999999999995" transform="matrix(-0.9612884521484375 0.27239990234375 -0.27239990234375 -0.9612884521484375 429.2 531.9)"/>
      <animate attributeName="display" begin="0s" repeatCount="indefinite" dur="1.833s" keyTimes="0;0.591;0.614;1" values="none;inline;none;none"/>
    </g>
    <g id="Scene_1_2_25">
      <use xlink:href="#purple" id="element70" width="347" height="469" x="-192" y="-93" overflow="visible" viewBox="-191.8 -92.85 346.15 468.04999999999995" transform="matrix(-0.999420166015625 0.030548095703125 -0.030548095703125 -0.999420166015625 371.85 532.25)"/>
      <animate attributeName="display" begin="0s" repeatCount="indefinite" dur="1.833s" keyTimes="0;0.568;0.591;1" values="none;inline;none;none"/>
    </g>
    <g id="Scene_1_2_24">
      <use xlink:href="#purple" id="element69" width="347" height="469" x="-192" y="-93" overflow="visible" viewBox="-191.8 -92.85 346.15 468.04999999999995" transform="matrix(-0.9765167236328125 -0.2122650146484375 0.2122650146484375 -0.9765167236328125 316.45 518.35)"/>
      <animate attributeName="display" begin="0s" repeatCount="indefinite" dur="1.833s" keyTimes="0;0.546;0.568;1" values="none;inline;none;none"/>
    </g>
    <g id="Scene_1_2_23">
      <use xlink:href="#purple" id="element68" width="347" height="469" x="-192" y="-93" overflow="visible" viewBox="-191.8 -92.85 346.15 468.04999999999995" transform="matrix(-0.8988189697265625 -0.4353790283203125 0.4353790283203125 -0.8988189697265625 267.55 492.45)"/>
      <animate attributeName="display" begin="0s" repeatCount="indefinite" dur="1.833s" keyTimes="0;0.523;0.546;1" values="none;inline;none;none"/>
    </g>
    <g id="Scene_1_2_22">
      <use xlink:href="#purple" id="element67" width="347" height="469" x="-192" y="-93" overflow="visible" viewBox="-191.8 -92.85 346.15 468.04999999999995" transform="matrix(-0.772125244140625 -0.6329345703125 0.6329345703125 -0.772125244140625 226.35 456.2)"/>
      <animate attributeName="display" begin="0s" repeatCount="indefinite" dur="1.833s" keyTimes="0;0.5;0.523;1" values="none;inline;none;none"/>
    </g>
    <g id="Scene_1_2_21">
      <use xlink:href="#purple" id="element66" width="347" height="469" x="-192" y="-93" overflow="visible" viewBox="-191.8 -92.85 346.15 468.04999999999995" transform="matrix(-0.6124420166015625 -0.78851318359375 0.78851318359375 -0.6124420166015625 196 413.75)"/>
      <animate attributeName="display" begin="0s" repeatCount="indefinite" dur="1.833s" keyTimes="0;0.477;0.5;1" values="none;inline;none;none"/>
    </g>
    <g id="Scene_1_2_20">
      <use xlink:href="#purple" id="element65" width="347" height="469" x="-192" y="-93" overflow="visible" viewBox="-191.8 -92.85 346.15 468.04999999999995" transform="matrix(-0.4274139404296875 -0.90264892578125 0.90264892578125 -0.4274139404296875 176.1 366.9)"/>
      <animate attributeName="display" begin="0s" repeatCount="indefinite" dur="1.833s" keyTimes="0;0.455;0.477;1" values="none;inline;none;none"/>
    </g>
    <g id="Scene_1_2_19">
      <use xlink:href="#purple" id="element64" width="347" height="469" x="-192" y="-93" overflow="visible" viewBox="-191.8 -92.85 346.15 468.04999999999995" transform="matrix(-0.2342529296875 -0.971405029296875 0.971405029296875 -0.2342529296875 166.95 319.75)"/>
      <animate attributeName="display" begin="0s" repeatCount="indefinite" dur="1.833s" keyTimes="0;0.432;0.455;1" values="none;inline;none;none"/>
    </g>
    <g id="Scene_1_2_18">
      <use xlink:href="#purple" id="element63" width="347" height="469" x="-192" y="-93" overflow="visible" viewBox="-191.8 -92.85 346.15 468.04999999999995" transform="matrix(-0.0436859130859375 -0.9989013671875 0.9989013671875 -0.0436859130859375 167.4 274.65)"/>
      <animate attributeName="display" begin="0s" repeatCount="indefinite" dur="1.833s" keyTimes="0;0.409;0.432;1" values="none;inline;none;none"/>
    </g>
    <g id="Scene_1_2_17">
      <use xlink:href="#purple" id="element62" width="347" height="469" x="-192" y="-93" overflow="visible" viewBox="-191.8 -92.85 346.15 468.04999999999995" transform="matrix(0.1392822265625 -0.9897918701171875 0.9897918701171875 0.1392822265625 175.9 232.6)"/>
      <animate attributeName="display" begin="0s" repeatCount="indefinite" dur="1.833s" keyTimes="0;0.386;0.409;1" values="none;inline;none;none"/>
    </g>
    <g id="Scene_1_2_16">
      <use xlink:href="#purple" id="element61" width="347" height="469" x="-192" y="-93" overflow="visible" viewBox="-191.8 -92.85 346.15 468.04999999999995" transform="matrix(0.3055572509765625 -0.951171875 0.951171875 0.3055572509765625 190.75 195.5)"/>
      <animate attributeName="display" begin="0s" repeatCount="indefinite" dur="1.833s" keyTimes="0;0.364;0.386;1" values="none;inline;none;none"/>
    </g>
    <g id="Scene_1_2_15">
      <use xlink:href="#purple" id="element60" width="347" height="469" x="-192" y="-93" overflow="visible" viewBox="-191.8 -92.85 346.15 468.04999999999995" transform="matrix(0.454559326171875 -0.88922119140625 0.88922119140625 0.454559326171875 210.35 163.2)"/>
      <animate attributeName="display" begin="0s" repeatCount="indefinite" dur="1.833s" keyTimes="0;0.341;0.364;1" values="none;inline;none;none"/>
    </g>
    <g id="Scene_1_2_14">
      <use xlink:href="#purple" id="element59" width="347" height="469" x="-192" y="-93" overflow="visible" viewBox="-191.8 -92.85 346.15 468.04999999999995" transform="matrix(0.5814361572265625 -0.8116912841796875 0.8116912841796875 0.5814361572265625 232.75 136.6)"/>
      <animate attributeName="display" begin="0s" repeatCount="indefinite" dur="1.833s" keyTimes="0;0.318;0.341;1" values="none;inline;none;none"/>
    </g>
    <g id="Scene_1_2_13">
      <use xlink:href="#purple" id="element58" width="347" height="469" x="-192" y="-93" overflow="visible" viewBox="-191.8 -92.85 346.15 468.04999999999995" transform="matrix(0.6886444091796875 -0.72283935546875 0.72283935546875 0.6886444091796875 257.1 114.9)"/>
      <animate attributeName="display" begin="0s" repeatCount="indefinite" dur="1.833s" keyTimes="0;0.296;0.318;1" values="none;inline;none;none"/>
    </g>
    <g id="Scene_1_2_12">
      <use xlink:href="#purple" id="element57" width="347" height="469" x="-192" y="-93" overflow="visible" viewBox="-191.8 -92.85 346.15 468.04999999999995" transform="matrix(0.77459716796875 -0.629913330078125 0.629913330078125 0.77459716796875 281.65 98.35)"/>
      <animate attributeName="display" begin="0s" repeatCount="indefinite" dur="1.833s" keyTimes="0;0.273;0.296;1" values="none;inline;none;none"/>
    </g>
    <g id="Scene_1_2_11">
      <use xlink:href="#purple" id="element56" width="347" height="469" x="-192" y="-93" overflow="visible" viewBox="-191.8 -92.85 346.15 468.04999999999995" transform="matrix(0.84136962890625 -0.537689208984375 0.537689208984375 0.84136962890625 305.35 86.1)"/>
      <animate attributeName="display" begin="0s" repeatCount="indefinite" dur="1.833s" keyTimes="0;0.25;0.273;1" values="none;inline;none;none"/>
    </g>
    <g id="Scene_1_2_10">
      <use xlink:href="#purple" id="element55" width="347" height="469" x="-192" y="-93" overflow="visible" viewBox="-191.8 -92.85 346.15 468.04999999999995" transform="matrix(0.893096923828125 -0.446929931640625 0.446929931640625 0.893096923828125 328.15 77.3)"/>
      <animate attributeName="display" begin="0s" repeatCount="indefinite" dur="1.833s" keyTimes="0;0.227;0.25;1" values="none;inline;none;none"/>
    </g>
    <g id="Scene_1_2_9">
      <use xlink:href="#purple" id="element54" width="347" height="469" x="-192" y="-93" overflow="visible" viewBox="-191.8 -92.85 346.15 468.04999999999995" transform="matrix(0.930572509765625 -0.3630523681640625 0.3630523681640625 0.930572509765625 348.9 71.6)"/>
      <animate attributeName="display" begin="0s" repeatCount="indefinite" dur="1.833s" keyTimes="0;0.205;0.227;1" values="none;inline;none;none"/>
    </g>
    <g id="Scene_1_2_8">
      <use xlink:href="#purple" id="element53" width="347" height="469" x="-192" y="-93" overflow="visible" viewBox="-191.8 -92.85 346.15 468.04999999999995" transform="matrix(0.95758056640625 -0.285003662109375 0.285003662109375 0.95758056640625 367.95 68.1)"/>
      <animate attributeName="display" begin="0s" repeatCount="indefinite" dur="1.833s" keyTimes="0;0.182;0.205;1" values="none;inline;none;none"/>
    </g>
    <g id="Scene_1_2_7">
      <use xlink:href="#purple" id="element52" width="347" height="469" x="-192" y="-93" overflow="visible" viewBox="-191.8 -92.85 346.15 468.04999999999995" transform="matrix(0.97540283203125 -0.21722412109375 0.21722412109375 0.97540283203125 384.3 66.3)"/>
      <animate attributeName="display" begin="0s" repeatCount="indefinite" dur="1.833s" keyTimes="0;0.159;0.182;1" values="none;inline;none;none"/>
    </g>
    <g id="Scene_1_2_6">
      <use xlink:href="#purple" id="element51" width="347" height="469" x="-192" y="-93" overflow="visible" viewBox="-191.8 -92.85 346.15 468.04999999999995" transform="matrix(0.9870147705078125 -0.1573944091796875 0.1573944091796875 0.9870147705078125 398.5 65.75)"/>
      <animate attributeName="display" begin="0s" repeatCount="indefinite" dur="1.833s" keyTimes="0;0.136;0.159;1" values="none;inline;none;none"/>
    </g>
    <g id="Scene_1_2_5">
      <use xlink:href="#purple" id="element50" width="347" height="469" x="-192" y="-93" overflow="visible" viewBox="-191.8 -92.85 346.15 468.04999999999995" transform="matrix(0.99365234375 -0.1092529296875 0.1092529296875 0.99365234375 409.9 65.95)"/>
      <animate attributeName="display" begin="0s" repeatCount="indefinite" dur="1.833s" keyTimes="0;0.114;0.136;1" values="none;inline;none;none"/>
    </g>
    <g id="Scene_1_2_4">
      <use xlink:href="#purple" id="element49" width="347" height="469" x="-192" y="-93" overflow="visible" viewBox="-191.8 -92.85 346.15 468.04999999999995" transform="matrix(0.9973297119140625 -0.069793701171875 0.069793701171875 0.9973297119140625 419.15 66.45)"/>
      <animate attributeName="display" begin="0s" repeatCount="indefinite" dur="1.833s" keyTimes="0;0.091;0.114;1" values="none;inline;none;none"/>
    </g>
    <g id="Scene_1_2_3">
      <use xlink:href="#purple" id="element48" width="347" height="469" x="-192" y="-93" overflow="visible" viewBox="-191.8 -92.85 346.15 468.04999999999995" transform="matrix(0.999237060546875 -0.0359039306640625 0.0359039306640625 0.999237060546875 427.05 67.25)"/>
      <animate attributeName="display" begin="0s" repeatCount="indefinite" dur="1.833s" keyTimes="0;0.068;0.091;1" values="none;inline;none;none"/>
    </g>
    <g id="Scene_1_2_2">
      <use xlink:href="#purple" id="element47" width="347" height="469" x="-192" y="-93" overflow="visible" viewBox="-191.8 -92.85 346.15 468.04999999999995" transform="matrix(0.999847412109375 -0.0140838623046875 0.0140838623046875 0.999847412109375 432.15 67.9)"/>
      <animate attributeName="display" begin="0s" repeatCount="indefinite" dur="1.833s" keyTimes="0;0.045;0.068;1" values="none;inline;none;none"/>
    </g>
    <g id="Scene_1_2_1">
      <use xlink:href="#purple" id="element46" width="347" height="469" x="-192" y="-93" overflow="visible" viewBox="-191.8 -92.85 346.15 468.04999999999995" transform="matrix(0.9999847412109375 -0.0010528564453125 0.0010528564453125 0.9999847412109375 435.15 68.3)"/>
      <animate attributeName="display" begin="0s" repeatCount="indefinite" dur="1.833s" keyTimes="0;0.023;0.045;1" values="none;inline;none;none"/>
    </g>
    <g id="Scene_1_2_0">
      <use xlink:href="#purple" id="element45" width="347" height="469" x="-192" y="-93" overflow="visible" transform="matrix(1 0 0 1 435.4 68.35)"/>
      <animate attributeName="display" begin="0s" repeatCount="indefinite" dur="1.833s" keyTimes="0;0.023;1" values="inline;none;none"/>
    </g>
    <g id="Scene_1_1_44">
      <use xlink:href="#green" id="element44" width="473" height="417" x="-351" y="-137" overflow="visible" viewBox="-350.8 -136.2 472.7 416.8" transform="matrix(1 0 0 1 594.4 148.65)"/>
      <animate attributeName="display" begin="0s" repeatCount="indefinite" dur="1.833s" keyTimes="0;1;1" values="none;inline;none"/>
    </g>
    <g id="Scene_1_1_43">
      <use xlink:href="#green" id="element43" width="473" height="417" x="-351" y="-137" overflow="visible" viewBox="-350.8 -136.2 472.7 416.8" transform="matrix(0.9999237060546875 -0.0089874267578125 0.0089874267578125 0.9999237060546875 593.05 146.9)"/>
      <animate attributeName="display" begin="0s" repeatCount="indefinite" dur="1.833s" keyTimes="0;0.977;1" values="none;inline;none"/>
    </g>
    <g id="Scene_1_1_42">
      <use xlink:href="#green" id="element42" width="473" height="417" x="-351" y="-137" overflow="visible" viewBox="-350.8 -136.2 472.7 416.8" transform="matrix(0.999237060546875 -0.035980224609375 0.035980224609375 0.999237060546875 588.8 141.8)"/>
      <animate attributeName="display" begin="0s" repeatCount="indefinite" dur="1.833s" keyTimes="0;0.955;0.977;1" values="none;inline;none;none"/>
    </g>
    <g id="Scene_1_1_41">
      <use xlink:href="#green" id="element41" width="473" height="417" x="-351" y="-137" overflow="visible" viewBox="-350.8 -136.2 472.7 416.8" transform="matrix(0.995880126953125 -0.0873870849609375 0.0873870849609375 0.995880126953125 580.4 132.3)"/>
      <animate attributeName="display" begin="0s" repeatCount="indefinite" dur="1.833s" keyTimes="0;0.932;0.955;1" values="none;inline;none;none"/>
    </g>
    <g id="Scene_1_1_40">
      <use xlink:href="#green" id="element40" width="473" height="417" x="-351" y="-137" overflow="visible" viewBox="-350.8 -136.2 472.7 416.8" transform="matrix(0.987701416015625 -0.15313720703125 0.15313720703125 0.987701416015625 568.85 120.7)"/>
      <animate attributeName="display" begin="0s" repeatCount="indefinite" dur="1.833s" keyTimes="0;0.909;0.932;1" values="none;inline;none;none"/>
    </g>
    <g id="Scene_1_1_39">
      <use xlink:href="#green" id="element39" width="473" height="417" x="-351" y="-137" overflow="visible" viewBox="-350.8 -136.2 472.7 416.8" transform="matrix(0.9694671630859375 -0.2420196533203125 0.2420196533203125 0.9694671630859375 551.9 106.15)"/>
      <animate attributeName="display" begin="0s" repeatCount="indefinite" dur="1.833s" keyTimes="0;0.887;0.909;1" values="none;inline;none;none"/>
    </g>
    <g id="Scene_1_1_38">
      <use xlink:href="#green" id="element38" width="473" height="417" x="-351" y="-137" overflow="visible" viewBox="-350.8 -136.2 472.7 416.8" transform="matrix(0.9383544921875 -0.3426055908203125 0.3426055908203125 0.9383544921875 530.65 91.3)"/>
      <animate attributeName="display" begin="0s" repeatCount="indefinite" dur="1.833s" keyTimes="0;0.864;0.887;1" values="none;inline;none;none"/>
    </g>
    <g id="Scene_1_1_37">
      <use xlink:href="#green" id="element37" width="473" height="417" x="-351" y="-137" overflow="visible" viewBox="-350.8 -136.2 472.7 416.8" transform="matrix(0.88739013671875 -0.4581146240234375 0.4581146240234375 0.88739013671875 503.25 76.5)"/>
      <animate attributeName="display" begin="0s" repeatCount="indefinite" dur="1.833s" keyTimes="0;0.841;0.864;1" values="none;inline;none;none"/>
    </g>
    <g id="Scene_1_1_36">
      <use xlink:href="#green" id="element36" width="473" height="417" x="-351" y="-137" overflow="visible" viewBox="-350.8 -136.2 472.7 416.8" transform="matrix(0.81414794921875 -0.5779876708984375 0.5779876708984375 0.81414794921875 470.95 64.2)"/>
      <animate attributeName="display" begin="0s" repeatCount="indefinite" dur="1.833s" keyTimes="0;0.818;0.841;1" values="none;inline;none;none"/>
    </g>
    <g id="Scene_1_1_35">
      <use xlink:href="#green" id="element35" width="473" height="417" x="-351" y="-137" overflow="visible" viewBox="-350.8 -136.2 472.7 416.8" transform="matrix(0.7106170654296875 -0.7012481689453125 0.7012481689453125 0.7106170654296875 432.2 55.9)"/>
      <animate attributeName="display" begin="0s" repeatCount="indefinite" dur="1.833s" keyTimes="0;0.796;0.818;1" values="none;inline;none;none"/>
    </g>
    <g id="Scene_1_1_34">
      <use xlink:href="#green" id="element34" width="473" height="417" x="-351" y="-137" overflow="visible" viewBox="-350.8 -136.2 472.7 416.8" transform="matrix(0.577606201171875 -0.8144073486328125 0.8144073486328125 0.577606201171875 389.15 53.9)"/>
      <animate attributeName="display" begin="0s" repeatCount="indefinite" dur="1.833s" keyTimes="0;0.773;0.796;1" values="none;inline;none;none"/>
    </g>
    <g id="Scene_1_1_33">
      <use xlink:href="#green" id="element33" width="473" height="417" x="-351" y="-137" overflow="visible" viewBox="-350.8 -136.2 472.7 416.8" transform="matrix(0.4149322509765625 -0.9084930419921875 0.9084930419921875 0.4149322509765625 343.3 60.2)"/>
      <animate attributeName="display" begin="0s" repeatCount="indefinite" dur="1.833s" keyTimes="0;0.75;0.773;1" values="none;inline;none;none"/>
    </g>
    <g id="Scene_1_1_32">
      <use xlink:href="#green" id="element32" width="473" height="417" x="-351" y="-137" overflow="visible" viewBox="-350.8 -136.2 472.7 416.8" transform="matrix(0.225006103515625 -0.9736175537109375 0.9736175537109375 0.225006103515625 296.5 76.2)"/>
      <animate attributeName="display" begin="0s" repeatCount="indefinite" dur="1.833s" keyTimes="0;0.727;0.75;1" values="none;inline;none;none"/>
    </g>
    <g id="Scene_1_1_31">
      <use xlink:href="#green" id="element31" width="473" height="417" x="-351" y="-137" overflow="visible" viewBox="-350.8 -136.2 472.7 416.8" transform="matrix(0.013458251953125 -0.9998626708984375 0.9998626708984375 0.013458251953125 251.35 103.05)"/>
      <animate attributeName="display" begin="0s" repeatCount="indefinite" dur="1.833s" keyTimes="0;0.705;0.727;1" values="none;inline;none;none"/>
    </g>
    <g id="Scene_1_1_30">
      <use xlink:href="#green" id="element30" width="473" height="417" x="-351" y="-137" overflow="visible" viewBox="-350.8 -136.2 472.7 416.8" transform="matrix(-0.20416259765625 -0.9782562255859375 0.9782562255859375 -0.20416259765625 212.2 140.1)"/>
      <animate attributeName="display" begin="0s" repeatCount="indefinite" dur="1.833s" keyTimes="0;0.682;0.705;1" values="none;inline;none;none"/>
    </g>
    <g id="Scene_1_1_29">
      <use xlink:href="#green" id="element29" width="473" height="417" x="-351" y="-137" overflow="visible" viewBox="-350.8 -136.2 472.7 416.8" transform="matrix(-0.4226531982421875 -0.9048919677734375 0.9048919677734375 -0.4226531982421875 180.75 187.4)"/>
      <animate attributeName="display" begin="0s" repeatCount="indefinite" dur="1.833s" keyTimes="0;0.659;0.682;1" values="none;inline;none;none"/>
    </g>
    <g id="Scene_1_1_28">
      <use xlink:href="#green" id="element28" width="473" height="417" x="-351" y="-137" overflow="visible" viewBox="-350.8 -136.2 472.7 416.8" transform="matrix(-0.619842529296875 -0.7826995849609375 0.7826995849609375 -0.619842529296875 160.85 240.95)"/>
      <animate attributeName="display" begin="0s" repeatCount="indefinite" dur="1.833s" keyTimes="0;0.636;0.659;1" values="none;inline;none;none"/>
    </g>
    <g id="Scene_1_1_27">
      <use xlink:href="#green" id="element27" width="473" height="417" x="-351" y="-137" overflow="visible" viewBox="-350.8 -136.2 472.7 416.8" transform="matrix(-0.78839111328125 -0.6125946044921875 0.6125946044921875 -0.78839111328125 153.75 299.55)"/>
      <animate attributeName="display" begin="0s" repeatCount="indefinite" dur="1.833s" keyTimes="0;0.614;0.636;1" values="none;inline;none;none"/>
    </g>
    <g id="Scene_1_1_26">
      <use xlink:href="#green" id="element26" width="473" height="417" x="-351" y="-137" overflow="visible" viewBox="-350.8 -136.2 472.7 416.8" transform="matrix(-0.912078857421875 -0.407012939453125 0.407012939453125 -0.912078857421875 160.7 358.2)"/>
      <animate attributeName="display" begin="0s" repeatCount="indefinite" dur="1.833s" keyTimes="0;0.591;0.614;1" values="none;inline;none;none"/>
    </g>
    <g id="Scene_1_1_25">
      <use xlink:href="#green" id="element25" width="473" height="417" x="-351" y="-137" overflow="visible" viewBox="-350.8 -136.2 472.7 416.8" transform="matrix(-0.983428955078125 -0.178070068359375 0.178070068359375 -0.983428955078125 181.45 413.6)"/>
      <animate attributeName="display" begin="0s" repeatCount="indefinite" dur="1.833s" keyTimes="0;0.568;0.591;1" values="none;inline;none;none"/>
    </g>
    <g id="Scene_1_1_24">
      <use xlink:href="#green" id="element24" width="473" height="417" x="-351" y="-137" overflow="visible" viewBox="-350.8 -136.2 472.7 416.8" transform="matrix(-0.9981536865234375 0.0574493408203125 -0.0574493408203125 -0.9981536865234375 214.1 461.65)"/>
      <animate attributeName="display" begin="0s" repeatCount="indefinite" dur="1.833s" keyTimes="0;0.546;0.568;1" values="none;inline;none;none"/>
    </g>
    <g id="Scene_1_1_23">
      <use xlink:href="#green" id="element23" width="473" height="417" x="-351" y="-137" overflow="visible" viewBox="-350.8 -136.2 472.7 416.8" transform="matrix(-0.9563751220703125 0.2890167236328125 -0.2890167236328125 -0.9563751220703125 257.25 500.45)"/>
      <animate attributeName="display" begin="0s" repeatCount="indefinite" dur="1.833s" keyTimes="0;0.523;0.546;1" values="none;inline;none;none"/>
    </g>
    <g id="Scene_1_1_22">
      <use xlink:href="#green" id="element22" width="473" height="417" x="-351" y="-137" overflow="visible" viewBox="-350.8 -136.2 472.7 416.8" transform="matrix(-0.863922119140625 0.5008087158203125 -0.5008087158203125 -0.863922119140625 307.25 527.7)"/>
      <animate attributeName="display" begin="0s" repeatCount="indefinite" dur="1.833s" keyTimes="0;0.5;0.523;1" values="none;inline;none;none"/>
    </g>
    <g id="Scene_1_1_21">
      <use xlink:href="#green" id="element21" width="473" height="417" x="-351" y="-137" overflow="visible" viewBox="-350.8 -136.2 472.7 416.8" transform="matrix(-0.72869873046875 0.68243408203125 -0.68243408203125 -0.72869873046875 361 542.65)"/>
      <animate attributeName="display" begin="0s" repeatCount="indefinite" dur="1.833s" keyTimes="0;0.477;0.5;1" values="none;inline;none;none"/>
    </g>
    <g id="Scene_1_1_20">
      <use xlink:href="#green" id="element20" width="473" height="417" x="-351" y="-137" overflow="visible" viewBox="-350.8 -136.2 472.7 416.8" transform="matrix(-0.563140869140625 0.8245086669921875 -0.8245086669921875 -0.563140869140625 414.65 545.25)"/>
      <animate attributeName="display" begin="0s" repeatCount="indefinite" dur="1.833s" keyTimes="0;0.455;0.477;1" values="none;inline;none;none"/>
    </g>
    <g id="Scene_1_1_19">
      <use xlink:href="#green" id="element19" width="473" height="417" x="-351" y="-137" overflow="visible" viewBox="-350.8 -136.2 472.7 416.8" transform="matrix(-0.3787689208984375 0.9242401123046875 -0.9242401123046875 -0.3787689208984375 465.6 536.8)"/>
      <animate attributeName="display" begin="0s" repeatCount="indefinite" dur="1.833s" keyTimes="0;0.432;0.455;1" values="none;inline;none;none"/>
    </g>
    <g id="Scene_1_1_18">
      <use xlink:href="#green" id="element18" width="473" height="417" x="-351" y="-137" overflow="visible" viewBox="-350.8 -136.2 472.7 416.8" transform="matrix(-0.183197021484375 0.9824676513671875 -0.9824676513671875 -0.183197021484375 512.5 518.6)"/>
      <animate attributeName="display" begin="0s" repeatCount="indefinite" dur="1.833s" keyTimes="0;0.409;0.432;1" values="none;inline;none;none"/>
    </g>
    <g id="Scene_1_1_17">
      <use xlink:href="#green" id="element17" width="473" height="417" x="-351" y="-137" overflow="visible" viewBox="-350.8 -136.2 472.7 416.8" transform="matrix(0.0045013427734375 0.999969482421875 -0.999969482421875 0.0045013427734375 551.7 493.65)"/>
      <animate attributeName="display" begin="0s" repeatCount="indefinite" dur="1.833s" keyTimes="0;0.386;0.409;1" values="none;inline;none;none"/>
    </g>
    <g id="Scene_1_1_16">
      <use xlink:href="#green" id="element16" width="473" height="417" x="-351" y="-137" overflow="visible" viewBox="-350.8 -136.2 472.7 416.8" transform="matrix(0.183074951171875 0.9824981689453125 -0.9824981689453125 0.183074951171875 583.75 463.3)"/>
      <animate attributeName="display" begin="0s" repeatCount="indefinite" dur="1.833s" keyTimes="0;0.364;0.386;1" values="none;inline;none;none"/>
    </g>
    <g id="Scene_1_1_15">
      <use xlink:href="#green" id="element15" width="473" height="417" x="-351" y="-137" overflow="visible" viewBox="-350.8 -136.2 472.7 416.8" transform="matrix(0.3502044677734375 0.935516357421875 -0.935516357421875 0.3502044677734375 609.2 428.9)"/>
      <animate attributeName="display" begin="0s" repeatCount="indefinite" dur="1.833s" keyTimes="0;0.341;0.364;1" values="none;inline;none;none"/>
    </g>
    <g id="Scene_1_1_14">
      <use xlink:href="#green" id="element14" width="473" height="417" x="-351" y="-137" overflow="visible" viewBox="-350.8 -136.2 472.7 416.8" transform="matrix(0.4930877685546875 0.8683624267578125 -0.8683624267578125 0.4930877685546875 626.9 394.2)"/>
      <animate attributeName="display" begin="0s" repeatCount="indefinite" dur="1.833s" keyTimes="0;0.318;0.341;1" values="none;inline;none;none"/>
    </g>
    <g id="Scene_1_1_13">
      <use xlink:href="#green" id="element13" width="473" height="417" x="-351" y="-137" overflow="visible" viewBox="-350.8 -136.2 472.7 416.8" transform="matrix(0.616363525390625 0.785430908203125 -0.785430908203125 0.616363525390625 638.35 359.45)"/>
      <animate attributeName="display" begin="0s" repeatCount="indefinite" dur="1.833s" keyTimes="0;0.296;0.318;1" values="none;inline;none;none"/>
    </g>
    <g id="Scene_1_1_12">
      <use xlink:href="#green" id="element12" width="473" height="417" x="-351" y="-137" overflow="visible" viewBox="-350.8 -136.2 472.7 416.8" transform="matrix(0.719573974609375 0.6920623779296875 -0.6920623779296875 0.719573974609375 644.3 325.7)"/>
      <animate attributeName="display" begin="0s" repeatCount="indefinite" dur="1.833s" keyTimes="0;0.273;0.296;1" values="none;inline;none;none"/>
    </g>
    <g id="Scene_1_1_11">
      <use xlink:href="#green" id="element11" width="473" height="417" x="-351" y="-137" overflow="visible" viewBox="-350.8 -136.2 472.7 416.8" transform="matrix(0.8013458251953125 0.5955810546875 -0.5955810546875 0.8013458251953125 645.65 294.55)"/>
      <animate attributeName="display" begin="0s" repeatCount="indefinite" dur="1.833s" keyTimes="0;0.25;0.273;1" values="none;inline;none;none"/>
    </g>
    <g id="Scene_1_1_10">
      <use xlink:href="#green" id="element10" width="473" height="417" x="-351" y="-137" overflow="visible" viewBox="-350.8 -136.2 472.7 416.8" transform="matrix(0.8639984130859375 0.5006561279296875 -0.5006561279296875 0.8639984130859375 643.55 266.65)"/>
      <animate attributeName="display" begin="0s" repeatCount="indefinite" dur="1.833s" keyTimes="0;0.227;0.25;1" values="none;inline;none;none"/>
    </g>
    <g id="Scene_1_1_9">
      <use xlink:href="#green" id="element9" width="473" height="417" x="-351" y="-137" overflow="visible" viewBox="-350.8 -136.2 472.7 416.8" transform="matrix(0.91033935546875 0.4108734130859375 -0.4108734130859375 0.91033935546875 639 242.1)"/>
      <animate attributeName="display" begin="0s" repeatCount="indefinite" dur="1.833s" keyTimes="0;0.205;0.227;1" values="none;inline;none;none"/>
    </g>
    <g id="Scene_1_1_8">
      <use xlink:href="#green" id="element8" width="473" height="417" x="-351" y="-137" overflow="visible" viewBox="-350.8 -136.2 472.7 416.8" transform="matrix(0.9443359375 0.32586669921875 -0.32586669921875 0.9443359375 632.75 220.55)"/>
      <animate attributeName="display" begin="0s" repeatCount="indefinite" dur="1.833s" keyTimes="0;0.182;0.205;1" values="none;inline;none;none"/>
    </g>
    <g id="Scene_1_1_7">
      <use xlink:href="#green" id="element7" width="473" height="417" x="-351" y="-137" overflow="visible" viewBox="-350.8 -136.2 472.7 416.8" transform="matrix(0.967315673828125 0.2503814697265625 -0.2503814697265625 0.967315673828125 625.85 202.35)"/>
      <animate attributeName="display" begin="0s" repeatCount="indefinite" dur="1.833s" keyTimes="0;0.159;0.182;1" values="none;inline;none;none"/>
    </g>
    <g id="Scene_1_1_6">
      <use xlink:href="#green" id="element6" width="473" height="417" x="-351" y="-137" overflow="visible" viewBox="-350.8 -136.2 472.7 416.8" transform="matrix(0.9825897216796875 0.1825714111328125 -0.1825714111328125 0.9825897216796875 618.55 186.75)"/>
      <animate attributeName="display" begin="0s" repeatCount="indefinite" dur="1.833s" keyTimes="0;0.136;0.159;1" values="none;inline;none;none"/>
    </g>
    <g id="Scene_1_1_5">
      <use xlink:href="#green" id="element5" width="473" height="417" x="-351" y="-137" overflow="visible" viewBox="-350.8 -136.2 472.7 416.8" transform="matrix(0.9915618896484375 0.1263885498046875 -0.1263885498046875 0.9915618896484375 611.85 174.6)"/>
      <animate attributeName="display" begin="0s" repeatCount="indefinite" dur="1.833s" keyTimes="0;0.114;0.136;1" values="none;inline;none;none"/>
    </g>
    <g id="Scene_1_1_4">
      <use xlink:href="#green" id="element4" width="473" height="417" x="-351" y="-137" overflow="visible" viewBox="-350.8 -136.2 472.7 416.8" transform="matrix(0.996612548828125 0.0790557861328125 -0.0790557861328125 0.996612548828125 605.7 164.55)"/>
      <animate attributeName="display" begin="0s" repeatCount="indefinite" dur="1.833s" keyTimes="0;0.091;0.114;1" values="none;inline;none;none"/>
    </g>
    <g id="Scene_1_1_3">
      <use xlink:href="#green" id="element3" width="473" height="417" x="-351" y="-137" overflow="visible" viewBox="-350.8 -136.2 472.7 416.8" transform="matrix(0.9988861083984375 0.04400634765625 -0.04400634765625 0.9988861083984375 600.85 157.4)"/>
      <animate attributeName="display" begin="0s" repeatCount="indefinite" dur="1.833s" keyTimes="0;0.068;0.091;1" values="none;inline;none;none"/>
    </g>
    <g id="Scene_1_1_2">
      <use xlink:href="#green" id="element2" width="473" height="417" x="-351" y="-137" overflow="visible" viewBox="-350.8 -136.2 472.7 416.8" transform="matrix(0.9997711181640625 0.0180511474609375 -0.0180511474609375 0.9997711181640625 597.05 152.2)"/>
      <animate attributeName="display" begin="0s" repeatCount="indefinite" dur="1.833s" keyTimes="0;0.045;0.068;1" values="none;inline;none;none"/>
    </g>
    <g id="Scene_1_1_1">
      <use xlink:href="#green" id="element1" width="473" height="417" x="-351" y="-137" overflow="visible" viewBox="-350.8 -136.2 472.7 416.8" transform="matrix(0.999969482421875 0.0045013427734375 -0.0045013427734375 0.999969482421875 595.1 149.55)"/>
      <animate attributeName="display" begin="0s" repeatCount="indefinite" dur="1.833s" keyTimes="0;0.023;0.045;1" values="none;inline;none;none"/>
    </g>
    <g id="Scene_1_1_0">
      <use xlink:href="#green" id="element" width="473" height="417" x="-351" y="-137" overflow="visible" transform="matrix(1 0 0 1 594.4 148.65)"/>
      <animate attributeName="display" begin="0s" repeatCount="indefinite" dur="1.833s" keyTimes="0;0.023;1" values="inline;none;none"/>
    </g>
  </g>
</svg>