<?xml version="1.0" encoding="utf-8"?>
<!-- Generator: Adobe Illustrator 17.0.0, SVG Export Plug-In . SVG Version: 6.00 Build 0)  -->
<!DOCTYPE svg PUBLIC "-//W3C//DTD SVG 1.1//EN" "http://www.w3.org/Graphics/SVG/1.1/DTD/svg11.dtd">
<svg version="1.1" id="Layer_1" xmlns="http://www.w3.org/2000/svg" xmlns:xlink="http://www.w3.org/1999/xlink" x="0px" y="0px"
	 width="72px" height="100px" viewBox="0 0 72 100" enable-background="new 0 0 72 100" xml:space="preserve">
<g>
	<polygon fill="#F7F7F7" points="12.471,56.201 12.26,78.844 31,86.693 31,64.621 	"/>
	<path fill="#F7F7F7" d="M15.793,54.388l17.119,7.751l22.319-5.906l-11.826-4.71l-1.492,3.627c-0.086,0.208-0.217,0.394-0.384,0.543
		c-0.156,0.142-3.895,3.459-8.735,3.459c-0.138,0-0.274-0.014-0.411-0.02c-0.046,0.004-0.092,0.021-0.137,0.021
		c-0.082,0-0.159-0.025-0.24-0.039c-1.074-0.082-2.122-0.323-3.124-0.734c-0.222-0.091-0.418-0.234-0.573-0.417l-4.515-5.326
		l-8.062,1.751l0.02,0.009L15.793,54.388z"/>
	<path fill="#F7F7F7" d="M12.774,34.999l17.191,20.278c-4.957-16.525-6.688-23.32-7.178-26.265
		C16.906,29.901,13.87,33.387,12.774,34.999z"/>
	<path fill="#F7F7F7" d="M34.054,56.046l4.215-27.391c-1.487,0.847-3.037,1.259-4.706,1.259c-1.476,0-2.83-0.307-4.141-0.604
		c-1.08-0.245-2.102-0.476-3.087-0.506c-0.207-0.007-0.398,0.002-0.6,0.001c0.81,4.005,4.254,16.137,7.612,27.307
		C33.586,56.096,33.824,56.082,34.054,56.046z"/>
	<path fill="#F7F7F7" d="M41.621,26.595l-4.365,28.363c0.951-0.495,1.674-1.015,2.023-1.293l12.573-30.564
		c-0.617-0.753-1.892-1.994-3.593-1.994c-1.746,0-3.743,1.314-5.777,3.802c-0.302,0.37-0.605,0.708-0.909,1.035
		C41.634,26.15,41.656,26.37,41.621,26.595z"/>
	<polygon fill="#F7F7F7" points="34,86.753 58.494,81.077 58.506,58.598 34,64.954 	"/>
	<path fill="#F7F7F7" d="M0,0v100h72V0H0z M61.493,82.27c0,0.698-0.481,1.303-1.161,1.46l-27.966,6.481
		c-0.112,0.026-0.226,0.039-0.339,0.039c-0.198,0-0.395-0.039-0.579-0.117l-21.277-8.912c-0.562-0.235-0.927-0.788-0.921-1.397
		l0.243-25.956c0-0.003,0.002-0.006,0.002-0.009c0.002-0.147,0.032-0.295,0.08-0.441c0.01-0.029,0.018-0.057,0.029-0.085
		c0.009-0.023,0.013-0.048,0.024-0.071c0.051-0.112,0.117-0.211,0.189-0.303c0.015-0.019,0.031-0.034,0.046-0.052
		c0.099-0.115,0.209-0.217,0.335-0.295c0.002-0.001,0.003-0.003,0.005-0.004c0.133-0.083,0.281-0.137,0.432-0.175
		c0.014-0.003,0.025-0.013,0.039-0.016l10.921-2.373L9.791,36.12c-0.385-0.455-0.465-1.095-0.202-1.63
		c0.165-0.337,3.953-7.803,14.381-8.555C23.98,25.933,23.989,26,23.998,26c0.009,0,0.017,0,0.026,0c0.768,0,1.564-0.149,2.406-0.123
		c1.273,0.04,2.484,0.278,3.656,0.544c1.202,0.272,2.337,0.511,3.478,0.511c1.585,0,3.768-0.453,6.597-3.912
		c2.66-3.254,5.385-4.908,8.1-4.908c4.16,0,6.491,3.864,6.589,4.029c0.119,0.203,0.188,0.427,0.204,0.656
		c0.017,0.228-0.019,0.46-0.108,0.677L44.546,48.749l16.016,6.302C60.579,55.057,60.591,55,60.606,55c0.001,0,0.001,0,0.002,0
		c0.11,0,0.213,0.184,0.306,0.255c0.018,0.013,0.039,0.063,0.056,0.077c0.101,0.084,0.193,0.201,0.268,0.307
		c0.015,0.021,0.035,0.054,0.049,0.075c0.06,0.096,0.125,0.203,0.163,0.311c0.008,0.024,0.05,0.048,0.057,0.072
		c0.037,0.126,0.119,0.26,0.121,0.395c0.004,0.231-0.045,0.447-0.119,0.65L61.493,82.27z"/>
</g>
</svg>
