<?xml version="1.0" encoding="utf-8"?>
<!-- Generator: Adobe Illustrator 17.0.0, SVG Export Plug-In . SVG Version: 6.00 Build 0)  -->
<!DOCTYPE svg PUBLIC "-//W3C//DTD SVG 1.1//EN" "http://www.w3.org/Graphics/SVG/1.1/DTD/svg11.dtd">
<svg version="1.1" id="Layer_1" xmlns="http://www.w3.org/2000/svg" xmlns:xlink="http://www.w3.org/1999/xlink" x="0px" y="0px"
	 width="72px" height="100px" viewBox="0 0 72 100" enable-background="new 0 0 72 100" xml:space="preserve">
<path fill="#F7F7F7" d="M22.68,79.281c-1.713,2.981-1.053,6.75,1.57,8.96c2.906,2.45,7.206,2.109,9.791-0.699
	C34.325,87.234,34.726,87,35.145,87c0.002,0,0.005,0,0.007,0c0.285,0,0.561,0.142,0.797,0.292c1.472,0.668,8.956,2.564,10.998,0.141
	c0.46-0.546,0.837-1.187,1.151-1.99c0.176-0.45,0.559-0.781,1.027-0.9c0.469-0.118,0.966-0.001,1.336,0.311
	c1.471,1.24,3.413,1.902,5.323,1.812c1.938-0.091,3.662-0.918,4.854-2.332c2.584-3.066,2.304-6.371-0.836-9.826
	c-0.399-0.439-0.502-1.073-0.262-1.615c0.14-0.315,0.379-0.565,0.672-0.719c0.316-0.299,1.064-1.188,1.398-1.584l0.147-0.175
	c2.509-2.976,2.082-7.638-0.934-10.18c-0.3-0.253-0.639-0.503-0.906-0.668c-0.404-0.25-0.666-0.676-0.706-1.149
	c-0.041-0.473,0.146-0.938,0.502-1.252c0.234-0.207,0.481-0.464,0.735-0.764c2.529-3,2.143-7.503-0.863-10.037
	c-2.807-2.367-6.964-2.17-9.563,0.409l-27.27,32.344C22.73,79.172,22.71,79.228,22.68,79.281z M56.137,74.167l-4.436,2.011
	c-0.201,0.091-0.411,0.134-0.618,0.134c-0.571,0-1.116-0.328-1.367-0.881c-0.342-0.754-0.008-1.643,0.747-1.985l4.436-2.011
	c0.756-0.342,1.643-0.007,1.985,0.747C57.226,72.936,56.892,73.824,56.137,74.167z M50.829,50.206l4.547-1.746
	c0.777-0.297,1.641,0.089,1.938,0.863c0.297,0.773-0.09,1.641-0.862,1.938l-4.547,1.746c-0.178,0.068-0.359,0.1-0.538,0.1
	c-0.603,0-1.171-0.366-1.4-0.963C49.67,51.371,50.057,50.503,50.829,50.206z M50.775,57.397c0.812-0.069,1.549,0.55,1.613,1.377
	l0.383,4.855c0.065,0.826-0.552,1.548-1.377,1.613c-0.04,0.003-0.08,0.005-0.12,0.005c-0.774,0-1.432-0.596-1.493-1.382
	l-0.383-4.855C49.333,58.185,49.95,57.462,50.775,57.397z M44.548,81.799l-0.863,4.793c-0.131,0.726-0.763,1.235-1.475,1.235
	c-0.089,0-0.178-0.008-0.268-0.024c-0.815-0.146-1.357-0.927-1.211-1.742l0.863-4.793c0.147-0.816,0.933-1.359,1.742-1.21
	C44.152,80.204,44.694,80.984,44.548,81.799z M41.867,65.081c0.808-0.139,1.59,0.414,1.728,1.231l0.806,4.804
	c0.137,0.817-0.414,1.59-1.231,1.728c-0.084,0.014-0.167,0.021-0.25,0.021c-0.719,0-1.354-0.519-1.478-1.252l-0.806-4.804
	C40.499,65.992,41.05,65.218,41.867,65.081z M30.919,73.956l4.437-2.01c0.756-0.342,1.644-0.007,1.985,0.747
	s0.008,1.644-0.747,1.985l-4.437,2.01c-0.201,0.091-0.411,0.134-0.618,0.134c-0.571,0-1.116-0.328-1.367-0.881
	C29.83,75.187,30.164,74.297,30.919,73.956z M26.076,84.737l4.437-2.011c0.755-0.342,1.644-0.007,1.985,0.747
	s0.008,1.644-0.747,1.985l-4.437,2.011c-0.201,0.091-0.411,0.134-0.618,0.134c-0.571,0-1.116-0.328-1.367-0.881
	C24.987,85.968,25.321,85.079,26.076,84.737z"/>
<path fill="#F7F7F7" d="M47.817,44.736l0.286-0.339l-19.271-8.842L8.318,59.885l11.84,17.655l27.477-32.588
	c0.027-0.033,0.036-0.074,0.066-0.105C47.738,44.808,47.779,44.775,47.817,44.736z M22.6,71.72c-0.25,0.16-0.529,0.236-0.807,0.236
	c-0.494,0-0.979-0.244-1.265-0.692l-7.718-12.069c-0.446-0.698-0.242-1.625,0.456-2.072c0.695-0.445,1.624-0.244,2.071,0.456
	l7.718,12.069C23.502,70.346,23.298,71.274,22.6,71.72z M27.968,65.417c-0.277,0.225-0.611,0.334-0.942,0.334
	c-0.438,0-0.87-0.19-1.167-0.556l-8.765-10.828c-0.521-0.644-0.422-1.588,0.223-2.11c0.645-0.521,1.588-0.421,2.109,0.222
	l8.765,10.828C28.712,63.951,28.612,64.895,27.968,65.417z M33.011,58.689c-0.297,0.352-0.721,0.533-1.147,0.533
	c-0.341,0-0.685-0.116-0.966-0.353l-9.771-8.239c-0.634-0.534-0.714-1.48-0.18-2.114s1.48-0.714,2.113-0.18l9.771,8.239
	C33.465,57.11,33.545,58.056,33.011,58.689z M38.399,53.045c-0.275,0.491-0.785,0.767-1.31,0.767c-0.249,0-0.5-0.062-0.732-0.192
	l-12.153-6.809c-0.723-0.405-0.98-1.319-0.575-2.042c0.406-0.724,1.318-0.979,2.042-0.575l12.153,6.809
	C38.547,51.408,38.805,52.322,38.399,53.045z M43.706,46.688c-0.241,0.573-0.798,0.917-1.383,0.917
	c-0.194,0-0.392-0.038-0.582-0.118l-13.2-5.568c-0.764-0.322-1.121-1.202-0.799-1.965c0.321-0.763,1.202-1.122,1.965-0.799
	l13.2,5.568C43.671,45.045,44.028,45.925,43.706,46.688z"/>
<path fill="#F7F7F7" d="M0,0v100h72V0H0z M21.221,25.983c0.078-0.232,0.831-2.29,3.172-3.062c2.259-0.744,5.061,0.032,8.329,2.31
	c0.68,0.474,0.847,1.408,0.373,2.088c-0.291,0.418-0.758,0.643-1.231,0.643c-0.296,0-0.596-0.087-0.856-0.27
	c-2.357-1.643-4.359-2.33-5.638-1.934c-0.962,0.298-1.299,1.168-1.313,1.205c-0.288,0.766-1.142,1.17-1.912,0.897
	C21.373,27.586,20.96,26.758,21.221,25.983z M62.932,86.269c-3.145,3.731-8.598,4.46-12.864,1.971
	c-0.251,0.415-0.526,0.799-0.828,1.157c-1.228,1.456-3.239,2.218-5.979,2.266c-2.443,0.046-5.819-0.606-7.765-1.291
	c-1.9,1.682-4.293,2.539-6.693,2.539c-2.295,0-4.597-0.782-6.485-2.375c-2.831-2.387-4.052-6.046-3.417-9.525
	c-0.042-0.048-0.088-0.091-0.124-0.145L5.197,60.618c-0.372-0.556-0.332-1.291,0.1-1.802L27.274,32.75
	c0.434-0.515,1.158-0.678,1.772-0.396l22.095,10.137c3.391-1.409,7.415-0.921,10.379,1.579c4.191,3.533,4.797,9.763,1.418,14.025
	c4.095,3.623,4.62,10.093,1.113,14.253l-0.145,0.172c-0.366,0.435-0.675,0.799-0.942,1.102
	C66.181,77.856,66.191,82.403,62.932,86.269z"/>
</svg>
