<?xml version="1.0" encoding="utf-8"?>
<!-- Generator: Adobe Illustrator 17.0.0, SVG Export Plug-In . SVG Version: 6.00 Build 0)  -->
<!DOCTYPE svg PUBLIC "-//W3C//DTD SVG 1.1//EN" "http://www.w3.org/Graphics/SVG/1.1/DTD/svg11.dtd">
<svg version="1.1" id="Layer_1" xmlns="http://www.w3.org/2000/svg" xmlns:xlink="http://www.w3.org/1999/xlink" x="0px" y="0px"
	 width="72px" height="100px" viewBox="0 0 72 100" enable-background="new 0 0 72 100" xml:space="preserve">
<path fill="#F7F7F7" d="M0,0v100h72V0H0z M11,34.129c0-13.108,10.542-23.773,23.5-23.773S58,21.021,58,34.129v40.954
	c0,0.595-0.352,1.133-0.896,1.373c-0.542,0.239-1.178,0.134-1.617-0.268l-7-6.418l-4.035,6.357
	c-0.246,0.388-0.657,0.642-1.114,0.688c-0.051,0.005-0.102,0.008-0.152,0.008c-0.404,0-0.794-0.163-1.077-0.457l-6.626-6.841
	l-6.661,6.844c-0.296,0.304-0.681,0.464-1.132,0.453c-0.424-0.016-0.821-0.211-1.094-0.536l-5.657-6.761L13.502,76.2
	c-0.441,0.396-1.073,0.496-1.613,0.253C11.349,76.212,11,75.675,11,75.083V34.129z M51.132,91.34
	c-4.525,0.508-10.53,0.788-16.908,0.788c-6.379,0-12.384-0.28-16.909-0.788c-6.949-0.781-8.267-1.787-8.267-3.372
	c0-1.584,1.317-2.59,8.267-3.371c4.526-0.509,10.531-0.789,16.909-0.789s12.383,0.28,16.908,0.789
	c6.949,0.781,8.267,1.787,8.267,3.371C59.398,89.553,58.081,90.559,51.132,91.34z"/>
<path fill="#F7F7F7" d="M14.755,87.968c3.727,0.611,10.539,1.16,19.469,1.16c8.929,0,15.742-0.549,19.468-1.16
	c-3.727-0.611-10.539-1.16-19.468-1.16C25.294,86.809,18.481,87.357,14.755,87.968z"/>
<path fill="#F7F7F7" d="M21.091,65.873c0.035,0,0.071,0.001,0.106,0.004c0.406,0.029,0.783,0.221,1.044,0.533l5.588,6.677
	l6.58-6.697c0.282-0.29,0.67-0.39,1.075-0.39c0.001,0,0.001,0,0.002,0c0.405,0,0.794,0.102,1.075,0.393l6.377,6.552l3.975-6.278
	c0.238-0.375,0.63-0.633,1.069-0.691c0.445-0.059,0.884,0.077,1.211,0.377L55,71.673V34.129c0-11.454-9.196-20.773-20.5-20.773
	S14,22.675,14,34.129v37.592l6.089-5.465C20.365,66.009,20.723,65.873,21.091,65.873z M45.5,29.938c1.181,0,2.138,0.957,2.138,2.138
	s-0.957,2.138-2.138,2.138s-2.138-0.957-2.138-2.138S44.319,29.938,45.5,29.938z M27.743,40.085
	c0.283,0.251,6.656,5.771,14.353-0.079c0.657-0.501,1.601-0.373,2.102,0.287c0.501,0.66,0.373,1.601-0.287,2.102
	c-3.23,2.456-6.315,3.278-8.994,3.278c-5.378,0-9.127-3.31-9.183-3.36c-0.614-0.556-0.661-1.504-0.105-2.119
	S27.132,39.534,27.743,40.085z M24.297,29.938c1.181,0,2.138,0.957,2.138,2.138s-0.957,2.138-2.138,2.138s-2.138-0.957-2.138-2.138
	S23.116,29.938,24.297,29.938z"/>
</svg>
