<?xml version="1.0" encoding="utf-8"?>
<!-- Generator: Adobe Illustrator 15.0.0, SVG Export Plug-In . SVG Version: 6.00 Build 0)  -->
<!DOCTYPE svg PUBLIC "-//W3C//DTD SVG 1.1//EN" "http://www.w3.org/Graphics/SVG/1.1/DTD/svg11.dtd">
<svg version="1.1" id="Layer_1" xmlns="http://www.w3.org/2000/svg" xmlns:xlink="http://www.w3.org/1999/xlink" x="0px" y="0px"
	 width="183.801px" height="110.146px" viewBox="28.099 64.928 183.801 110.146"
	 enable-background="new 28.099 64.928 183.801 110.146" xml:space="preserve">
<g>
	<g>
		<path fill="#FFFFFF" d="M143.068,88.291l-9.568,2.745l-6.379,20.471l-1.633,0.521l1.336-15.65l-0.742-3.264l-8.975,2.596
			l-24.403,5.711c3.708,10.903,14.019,18.84,26.183,18.84c15.281,0,27.593-12.387,27.593-27.592c0-1.929-0.224-3.857-0.595-5.711
			C145.145,87.4,144.105,87.995,143.068,88.291z"/>
		<path fill="#FFFFFF" d="M115.995,91.926l9.048-2.596l-1.111-3.115l-9.419-12.609l1.706-0.444l16.244,14.019l9.567-2.744
			c1.037-0.297,2.226-0.371,3.188-0.371c-3.561-11.127-14.018-19.138-26.333-19.138c-15.278,0-27.591,12.388-27.591,27.593
			c0,2.596,0.371,5.117,1.038,7.564L115.995,91.926z"/>
	</g>
	<path fill="#FFFFFF" d="M174.518,158.755l-0.074-0.073v-25.664l0.074-0.074h6.822l0.076,0.074v25.664l-0.076,0.073H174.518z
		 M177.93,127.604c-2.301,0-4.154-1.854-4.154-4.152c0-2.374,1.854-4.228,4.154-4.228c2.299,0,4.152,1.927,4.152,4.228
		C182.082,125.748,180.229,127.604,177.93,127.604 M139.656,147.48l-0.074,0.074h-18.84c0.371,4.375,3.264,6.896,7.863,6.896
		c2.816,0,5.855-0.965,10.086-3.266l0.146,0.074v5.786l-0.072,0.074c-3.934,1.707-7.938,2.819-11.053,2.819
		c-8.084,0-13.944-5.936-13.944-14.021c0-8.158,5.858-14.021,13.944-14.021c7.418,0,12.164,4.972,12.164,11.795
		C139.879,144.811,139.656,147.332,139.656,147.48 M127.715,137.468c-3.635,0-6.156,2.226-6.824,6.082h12.387v-0.223
		C133.277,140.212,131.051,137.468,127.715,137.468 M83.285,158.755h-8.233l-0.073-0.073l-7.121-8.604l-7.047,8.604l-0.074,0.074
		h-6.602l-0.074-0.074v-0.146l10.459-12.832l-10.311-12.686v-0.074l0.074-0.072h8.158l0.074,0.072l6.23,7.716l6.305-7.716
		l0.074-0.072H81.8l0.075,0.072v0.074l-9.792,11.793l11.2,13.725v0.146L83.285,158.755"/>
	<path fill="#FFFFFF" d="M211.9,132.572l-0.297-0.297h-5.488l-0.297,0.297v0.964h-0.148c-2.521-1.112-4.674-1.632-6.824-1.632
		c-7.562,0-13.574,6.305-13.574,14.39c0,8.159,5.34,13.647,13.277,13.647c2.15,0,4.82-0.147,7.418-3.041v3.263
		c1.779-0.37,3.93-1.112,5.934-2.597V132.572L211.9,132.572z M204.928,152.673c-2.076,1.188-3.783,1.78-5.34,1.78
		c-4.525,0-7.195-2.967-7.195-7.938c0-5.638,3.189-9.421,7.863-9.421c1.26,0,2.818,0.445,4.674,1.483v14.093L204.928,152.673
		L204.928,152.673z M162.131,119.369v13.426c-2.004-0.594-3.709-0.814-5.49-0.814c-8.084,0-14.166,6.08-14.166,14.166
		c0,8.012,5.34,13.871,12.758,13.871c2.521,0,4.971-0.668,7.787-2.078v2.301c1.855-0.37,4.006-1.112,6.082-2.598v-41.018
		C167.025,116.848,164.578,117.59,162.131,119.369 M162.131,152.747c-2.152,1.112-4.006,1.632-5.787,1.632
		c-4.227,0-6.676-2.967-6.676-7.938c0-5.711,3.191-9.42,8.16-9.42c1.336,0,2.67,0.297,4.303,1.039V152.747L162.131,152.747z
		 M97.525,131.831c-1.928,0-3.857,0.37-5.859,1.038h-6.75l-0.074,0.074v42.13c2.077-0.298,4.524-1.039,6.971-2.744V159.57
		c1.633,0.224,3.043,0.371,4.377,0.371c9.271,0,15.278-5.562,15.278-14.166C111.396,137.616,105.686,131.831,97.525,131.831
		 M95.671,154.898c-1.261,0-2.448-0.148-3.931-0.594v-16.468c1.705-0.521,3.189-0.815,4.599-0.815c4.673,0,7.862,3.485,7.862,8.604
		C104.275,151.264,100.863,154.898,95.671,154.898"/>
	<g>
		<path fill="#FFFFFF" d="M35.369,152.229h16.986c-0.224,1.93-0.891,4.153-2.375,6.379H35.369h-2.893h-0.224
			c-2.149,0-3.931-1.705-4.153-3.781v-0.074V137.32v-16.096v-0.074c0.224-2.15,2.002-3.782,4.153-3.782h0.224h19.877
			c-0.223,1.928-0.89,4.153-2.373,6.452H35.368v9.123h14.464l0.074,0.074v6.306l-0.074,0.073H35.368L35.369,152.229L35.369,152.229z
			"/>
	</g>
</g>
</svg>
