<?xml version="1.0" encoding="utf-8"?>
<!-- Generator: Adobe Illustrator 17.0.0, SVG Export Plug-In . SVG Version: 6.00 Build 0)  -->
<!DOCTYPE svg PUBLIC "-//W3C//DTD SVG 1.1//EN" "http://www.w3.org/Graphics/SVG/1.1/DTD/svg11.dtd">
<svg version="1.1" xmlns="http://www.w3.org/2000/svg" xmlns:xlink="http://www.w3.org/1999/xlink" x="0px" y="0px" width="100px"
	 height="100px" viewBox="0 0 100 100" enable-background="new 0 0 100 100" xml:space="preserve">
<g id="Layer_1" display="none">
	<rect display="inline" fill="#B3B3B3" width="100" height="100"/>
</g>
<g id="Layer_2">
	<g id="New_Symbol_54">
		<g id="New_Symbol_53">
			<g id="New_Symbol">
			</g>
		</g>
	</g>
	<g>
		<path fill="none" stroke="#FFFFFF" stroke-miterlimit="10" d="M92.5,76.85c0,3.12-2.53,5.65-5.65,5.65h-76.7
			c-3.12,0-5.65-2.53-5.65-5.65v-53.7c0-3.12,2.53-5.65,5.65-5.65h76.7c3.12,0,5.65,2.53,5.65,5.65V76.85z"/>
		<g>
			<path fill="#FFFFFF" d="M50.86,58.841L84.912,82H17.103L50.86,58.841 M50.857,57.63L13.878,83h74.283L50.857,57.63L50.857,57.63z
				"/>
		</g>
		<path fill="#FFFFFF" d="M85,33.918V83h4.863C92.984,83,95,79.296,95,76.176V22.677C95,19.557,92.984,17,89.863,17h-1.177
			L85,33.918z"/>
		<path fill="#FFFFFF" d="M15,33.918V83h-3.178C8.702,83,5,79.296,5,76.176V22.677C5,19.557,8.702,17,11.822,17h1.177l37.932,27.838
			L88.922,17h0.942C92.984,17,95,19.557,95,22.677v4.179L50.056,58.637L15,33.918z"/>
	</g>
	<g id="New_Symbol_13">
	</g>
	<g id="New_Symbol_1_">
	</g>
	<g id="New_Symbol_24">
	</g>
</g>
</svg>
